<?xml version="1.0" encoding="UTF-8" standalone="no"?>
<svg
   xmlns:dc="http://purl.org/dc/elements/1.1/"
   xmlns:cc="http://creativecommons.org/ns#"
   xmlns:rdf="http://www.w3.org/1999/02/22-rdf-syntax-ns#"
   xmlns:svg="http://www.w3.org/2000/svg"
   xmlns="http://www.w3.org/2000/svg"
   xmlns:xlink="http://www.w3.org/1999/xlink"
   xmlns:sodipodi="http://sodipodi.sourceforge.net/DTD/sodipodi-0.dtd"
   xmlns:inkscape="http://www.inkscape.org/namespaces/inkscape"
   height="181.53mm"
   width="181.53mm"
   version="1.1"
   viewBox="0 0 643.19999 643.19998"
   id="svg3897"
   sodipodi:docname="Die6.svg"
   inkscape:version="0.92.3 (2405546, 2018-03-11)">
  <metadata
     id="metadata3901">
    <rdf:RDF>
      <cc:Work
         rdf:about="">
        <dc:format>image/svg+xml</dc:format>
        <dc:type
           rdf:resource="http://purl.org/dc/dcmitype/StillImage" />
      </cc:Work>
    </rdf:RDF>
  </metadata>
  <sodipodi:namedview
     pagecolor="#ffffff"
     bordercolor="#666666"
     borderopacity="1"
     objecttolerance="10"
     gridtolerance="10"
     guidetolerance="10"
     inkscape:pageopacity="0"
     inkscape:pageshadow="2"
     inkscape:window-width="1920"
     inkscape:window-height="1018"
     id="namedview3899"
     showgrid="false"
     inkscape:zoom="1.2374332"
     inkscape:cx="343.04882"
     inkscape:cy="343.04882"
     inkscape:window-x="-8"
     inkscape:window-y="-8"
     inkscape:window-maximized="1"
     inkscape:current-layer="svg3897" />
  <defs
     id="defs3835">
    <linearGradient
       id="g"
       y2="392.36"
       xlink:href="#c"
       gradientUnits="userSpaceOnUse"
       x2="130"
       gradientTransform="translate(1000)"
       y1="542.36"
       x1="130" />
    <linearGradient
       id="c">
      <stop
         stop-color="#cfcfd2"
         offset="0"
         id="stop3809" />
      <stop
         stop-color="#f7f7f7"
         offset="1"
         id="stop3811" />
    </linearGradient>
    <linearGradient
       id="f"
       y2="467.36"
       xlink:href="#c"
       gradientUnits="userSpaceOnUse"
       x2="215"
       gradientTransform="translate(1000)"
       y1="467.36"
       x1="55" />
    <clipPath
       id="i"
       clipPathUnits="userSpaceOnUse">
      <rect
         ry="30"
         height="160"
         width="160"
         stroke="#000"
         y="387.36"
         x="55"
         stroke-width="0.8"
         fill="none"
         id="rect3815" />
    </clipPath>
    <filter
       id="d"
       style="color-interpolation-filters:sRGB"
       height="3.9618"
       width="1.1916"
       y="-1.4809"
       x="-.095824">
      <feGaussianBlur
         stdDeviation="6.7875"
         id="feGaussianBlur3818" />
    </filter>
    <filter
       id="b"
       style="color-interpolation-filters:sRGB"
       height="3.9618"
       width="1.1916"
       y="-1.4809"
       x="-.095824">
      <feGaussianBlur
         stdDeviation="6.7875"
         id="feGaussianBlur3821" />
    </filter>
    <linearGradient
       id="e"
       y2="532.36"
       gradientUnits="userSpaceOnUse"
       x2="140"
       gradientTransform="translate(1000)"
       y1="402.36"
       x1="140">
      <stop
         stop-color="#e0e0e0"
         offset="0"
         id="stop3824" />
      <stop
         stop-color="#eaeaea"
         offset="1"
         id="stop3826" />
    </linearGradient>
    <linearGradient
       id="a"
       y2="452.36"
       xlink:href="#h"
       gradientUnits="userSpaceOnUse"
       x2="-170"
       gradientTransform="translate(300,2.1e-5)"
       y1="482.36"
       x1="-170" />
    <linearGradient
       id="h">
      <stop
         stop-color="#787878"
         offset="0"
         id="stop3830" />
      <stop
         stop-color="#0c0c0c"
         offset="1"
         id="stop3832" />
    </linearGradient>
    <linearGradient
       inkscape:collect="always"
       xlink:href="#h"
       id="linearGradient3903"
       gradientUnits="userSpaceOnUse"
       gradientTransform="translate(300,2.1e-5)"
       x1="-170"
       y1="482.36"
       x2="-170"
       y2="452.36" />
    <linearGradient
       inkscape:collect="always"
       xlink:href="#h"
       id="linearGradient3905"
       gradientUnits="userSpaceOnUse"
       gradientTransform="translate(300,2.1e-5)"
       x1="-170"
       y1="482.36"
       x2="-170"
       y2="452.36" />
    <linearGradient
       inkscape:collect="always"
       xlink:href="#h"
       id="linearGradient3907"
       gradientUnits="userSpaceOnUse"
       gradientTransform="translate(300,2.1e-5)"
       x1="-170"
       y1="482.36"
       x2="-170"
       y2="452.36" />
    <linearGradient
       inkscape:collect="always"
       xlink:href="#h"
       id="linearGradient3909"
       gradientUnits="userSpaceOnUse"
       gradientTransform="translate(300,2.1e-5)"
       x1="-170"
       y1="482.36"
       x2="-170"
       y2="452.36" />
    <linearGradient
       inkscape:collect="always"
       xlink:href="#h"
       id="linearGradient3911"
       gradientUnits="userSpaceOnUse"
       gradientTransform="translate(300,2.1e-5)"
       x1="-170"
       y1="482.36"
       x2="-170"
       y2="452.36" />
  </defs>
  <g
     transform="rotate(-90,-288.873,-607.525)"
     id="g3895">
    <g
       transform="matrix(4,0,0,4,-5760,-1868.5)"
       id="g3893">
      <rect
         ry="30"
         height="160"
         width="160"
         y="387.35999"
         x="1055"
         id="rect3837"
         style="fill:url(#g);stroke:url(#f);stroke-width:0.80000001" />
      <g
         transform="translate(1000)"
         clip-path="url(#i)"
         id="g3851">
        <path
           d="m 135,542.36 a 90.002,13 0 0 0 -85,8.77 c 4.8596,1.4338 10.182,2.2285 15.772,2.2285 h 138.46 c 5.5874,0 10.906,-0.79421 15.764,-2.2266 A 90.002,13 0 0 0 135,542.3585 Z"
           id="path3839"
           inkscape:connector-curvature="0"
           style="fill:#666666;filter:url(#d)" />
        <g
           id="g3847"
           style="fill:#ffffff">
          <path
             d="m 135,393.36 a 90.002,13 0 0 1 -85,-8.77 c 4.8596,-1.4338 10.182,-2.2285 15.772,-2.2285 h 138.46 c 5.5874,0 10.906,0.79421 15.764,2.2266 A 90.002,13 0 0 1 135,393.3615 Z"
             id="path3841"
             inkscape:connector-curvature="0"
             style="filter:url(#b)" />
          <path
             d="m 135,393.36 a 90.002,13 0 0 1 -85,-8.77 c 4.8596,-1.4338 10.182,-2.2285 15.772,-2.2285 h 138.46 c 5.5874,0 10.906,0.79421 15.764,2.2266 A 90.002,13 0 0 1 135,393.3615 Z"
             id="path3843"
             inkscape:connector-curvature="0"
             style="filter:url(#b)" />
          <path
             d="m 135,393.36 a 90.002,13 0 0 1 -85,-8.77 c 4.8596,-1.4338 10.182,-2.2285 15.772,-2.2285 h 138.46 c 5.5874,0 10.906,0.79421 15.764,2.2266 A 90.002,13 0 0 1 135,393.3615 Z"
             id="path3845"
             inkscape:connector-curvature="0"
             style="filter:url(#b)" />
        </g>
        <path
           d="m 135,542.36 a 90.002,13 0 0 0 -85,8.77 c 4.8596,1.4338 10.182,2.2285 15.772,2.2285 h 138.46 c 5.5874,0 10.906,-0.79421 15.764,-2.2266 A 90.002,13 0 0 0 135,542.3585 Z"
           id="path3849"
           inkscape:connector-curvature="0"
           style="fill:#666666;filter:url(#d)" />
      </g>
      <rect
         ry="30"
         height="160"
         width="160"
         y="387.35999"
         x="1055"
         id="rect3853"
         style="fill:none;stroke:#000000;stroke-width:0.69999999" />
      <rect
         ry="40"
         height="130"
         width="130"
         y="402.35999"
         x="1070"
         id="rect3855"
         style="fill:url(#e)" />
      <g
         transform="translate(1040,-30)"
         id="g3861">
        <circle
           cx="135"
           cy="469.32001"
           r="15"
           id="circle3857"
           style="fill:#ffffff" />
        <circle
           cy="467.35999"
           cx="135"
           r="15"
           id="circle3859"
           style="fill:url(#linearGradient3903)" />
      </g>
      <g
         transform="translate(960,30)"
         id="g3867">
        <circle
           cx="135"
           cy="469.32001"
           r="15"
           id="circle3863"
           style="fill:#ffffff" />
        <circle
           cy="467.35999"
           cx="135"
           r="15"
           id="circle3865"
           style="fill:url(#linearGradient3905)" />
      </g>
      <g
         transform="translate(1000,-30)"
         id="g3873">
        <circle
           cy="469.32001"
           cx="135"
           r="15"
           id="circle3869"
           style="fill:#ffffff" />
        <circle
           cx="135"
           cy="467.35999"
           r="15"
           id="circle3871"
           style="fill:url(#linearGradient3907)" />
      </g>
      <g
         transform="translate(960,-30)"
         id="g3879">
        <circle
           cx="135"
           cy="469.32001"
           r="15"
           id="circle3875"
           style="fill:#ffffff" />
        <circle
           cy="467.35999"
           cx="135"
           r="15"
           id="circle3877"
           style="fill:url(#linearGradient3909)" />
      </g>
      <g
         transform="translate(1000,30)"
         id="g3885">
        <circle
           cy="469.32001"
           cx="135"
           r="15"
           id="circle3881"
           style="fill:#ffffff" />
        <circle
           cx="135"
           cy="467.35999"
           r="15"
           id="circle3883"
           style="fill:url(#linearGradient3911)" />
      </g>
      <g
         transform="translate(1040,30)"
         id="g3891">
        <circle
           cx="135"
           cy="469.32001"
           r="15"
           id="circle3887"
           style="fill:#ffffff" />
        <circle
           cy="467.35999"
           cx="135"
           r="15"
           id="circle3889"
           style="fill:url(#a)" />
      </g>
    </g>
  </g>
</svg>
